<svg version="1.1" xmlns="http://www.w3.org/2000/svg" xmlns:xlink="http://www.w3.org/1999/xlink" role="img" width="983" height="27" viewbox="0 0 983 27"><title>Experiments With Benford's Law On Some Crazy Datasets</title><desc>Generated by logo.svg, https://github.com/bubkoo/logo.svg</desc><path d="M4 7.10L16.68 7.10L16.68 11.50L8.55 11.50L8.55 13.70L15.30 13.70L15.30 17.88L8.55 17.88L8.55 20.10L16.68 20.10L16.68 24.50L4 24.50L4 7.10ZM28.15 15.80L21.48 7.10L22.68 7.10L28.75 15.03L34.85 7.10L36.03 7.10L29.35 15.80L36.03 24.50L34.85 24.50L28.75 16.57L22.68 24.50L21.48 24.50L28.15 15.80ZM42.40 24.50L41.48 24.50L41.48 7.10L48.48 7.10Q50.23 7.10 51.71 7.85Q53.20 8.60 54.08 9.97Q54.95 11.35 54.95 13.15Q54.95 14.88 54.06 16.32Q53.17 17.77 51.65 18.55Q50.33 19.23 48.48 19.23L42.40 19.23L42.40 24.50M42.40 18.30L48.48 18.30Q50.08 18.30 51.10 17.80Q52.42 17.18 53.23 15.92Q54.03 14.67 54.03 13.15Q54.03 11.65 53.23 10.40Q52.42 9.15 51.08 8.52Q50.05 8.02 48.48 8.02L42.40 8.02L42.40 18.30ZM59.75 7.10L72 7.10L72 8.02L60.67 8.02L60.67 15.07L70.53 15.07L70.53 16L60.67 16L60.67 23.57L72 23.57L72 24.50L59.75 24.50L59.75 7.10ZM88.03 7.68Q89.53 8.38 90.39 9.75Q91.25 11.13 91.25 12.80Q91.25 14.75 90.06 16.29Q88.88 17.82 87.03 18.32L91.45 24.50L90.35 24.50L86.08 18.50L85.28 18.52L79 18.52L79 24.50L78.08 24.50L78.08 7.10L84.70 7.10Q85.80 7.10 86.59 7.24Q87.38 7.38 88.03 7.68M85.53 17.60Q86.83 17.60 87.92 16.95Q89.03 16.30 89.67 15.20Q90.33 14.10 90.33 12.80Q90.33 11.35 89.56 10.17Q88.80 9 87.45 8.43Q86.47 8.02 84.70 8.02L79 8.02L79 17.60L85.53 17.60ZM108.40 7.10L108.40 8.02L103.20 8.02L103.20 23.57L108.40 23.57L108.40 24.50L97.13 24.50L97.13 23.57L102.30 23.57L102.30 8.02L97.13 8.02L97.13 7.10L108.40 7.10ZM115.15 24.50L114.22 24.50L114.22 7.10L115.22 7.10L121.30 17.82L127.35 7.10L128.28 7.10L128.28 24.50L127.35 24.50L127.35 8.95L121.72 18.88L120.85 18.88L115.15 8.82L115.15 24.50ZM133.75 7.10L146 7.10L146 8.02L134.68 8.02L134.68 15.07L144.53 15.07L144.53 16L134.68 16L134.68 23.57L146 23.57L146 24.50L133.75 24.50L133.75 7.10ZM151.45 24.50L151.45 7.10L152.43 7.10L164.57 18.90L164.57 7.10L165.50 7.10L165.50 24.50L164.57 24.50L164.57 20.20L152.38 8.30L152.38 24.50L151.45 24.50ZM183.78 7.10L183.78 8.02L177.20 8.02L177.20 24.50L176.30 24.50L176.30 8.02L169.72 8.02L169.72 7.10L183.78 7.10ZM195.63 16.17Q193.50 15.75 192.16 15.24Q190.82 14.72 190.06 13.84Q189.30 12.95 189.30 11.55Q189.30 10.10 190.06 9Q190.82 7.90 192.21 7.30Q193.60 6.70 195.43 6.70Q197.18 6.70 198.64 7.44Q200.10 8.18 200.95 9.50Q201.80 10.82 201.80 12.52L200.88 12.52Q200.88 11.05 200.15 9.92Q199.43 8.80 198.18 8.19Q196.93 7.57 195.40 7.57Q194.05 7.57 192.88 8Q191.70 8.43 190.96 9.30Q190.22 10.17 190.22 11.50Q190.22 12.70 190.93 13.41Q191.63 14.13 192.75 14.50Q193.88 14.88 195.90 15.30Q197.95 15.72 199.09 16.11Q200.22 16.50 201.01 17.40Q201.80 18.30 201.80 19.93Q201.80 21.55 200.94 22.66Q200.07 23.77 198.65 24.32Q197.22 24.88 195.55 24.88Q193.47 24.88 191.90 24.10Q190.32 23.32 189.49 21.91Q188.65 20.50 188.65 18.68L189.57 18.68Q189.57 20.27 190.29 21.48Q191 22.68 192.35 23.34Q193.70 24 195.55 24Q197.85 24 199.36 22.90Q200.88 21.80 200.88 19.90Q200.88 18.60 200.22 17.90Q199.57 17.20 198.59 16.89Q197.60 16.57 195.63 16.17ZM231.78 13.05L230.18 7.10L240.50 7.10L235.82 24.50L234.85 24.50L232.25 14.82L229.65 24.50L228.68 24.50L224 7.10L224.95 7.10L229.15 22.77L231.78 13.05M239.30 8.02L231.38 8.02L232.72 13.05L235.35 22.77L239.30 8.02ZM256.40 7.10L256.40 8.02L251.20 8.02L251.20 23.57L256.40 23.57L256.40 24.50L245.13 24.50L245.13 23.57L250.30 23.57L250.30 8.02L245.13 8.02L245.13 7.10L256.40 7.10ZM276.27 7.10L276.27 8.02L269.70 8.02L269.70 24.50L268.80 24.50L268.80 8.02L262.23 8.02L262.23 7.10L276.27 7.10ZM281.05 24.50L281.05 7.10L281.98 7.10L281.98 15.32L293.52 15.32L293.52 7.10L294.45 7.10L294.45 24.50L293.52 24.50L293.52 16.25L281.98 16.25L281.98 24.50L281.05 24.50ZM325.98 7.10Q327.63 7.10 328.60 7.60Q329.77 8.20 330.41 9.25Q331.05 10.30 331.05 11.60Q331.05 12.82 330.40 13.86Q329.75 14.90 328.63 15.50Q329.98 15.97 330.90 17.15Q331.82 18.32 331.82 19.80Q331.82 21.10 331.16 22.19Q330.50 23.27 329.40 23.90Q328.85 24.20 328.18 24.35Q327.50 24.50 326.38 24.50L318.68 24.50L318.68 7.10L325.98 7.10ZM337.25 7.10L349.50 7.10L349.50 8.02L338.18 8.02L338.18 15.07L348.02 15.07L348.02 16L338.18 16L338.18 23.57L349.50 23.57L349.50 24.50L337.25 24.50L337.25 7.10ZM354.95 24.50L354.95 7.10L355.93 7.10L368.07 18.90L368.07 7.10L369 7.10L369 24.50L368.07 24.50L368.07 20.20L355.88 8.30L355.88 24.50L354.95 24.50ZM374.48 7.10L387.45 7.10L387.45 8.02L375.40 8.02L375.40 15.32L385.15 15.32L385.15 16.25L375.40 16.25L375.40 24.50L374.48 24.50L374.48 7.10ZM398.75 6.72Q400.70 6.72 402.35 7.69Q404 8.65 404.96 10.30Q405.93 11.95 405.93 13.90L405.93 17.70Q405.93 19.65 404.96 21.30Q404 22.95 402.35 23.91Q400.70 24.88 398.75 24.88Q396.80 24.88 395.15 23.91Q393.50 22.95 392.54 21.30Q391.57 19.65 391.57 17.70L391.57 13.90Q391.57 11.95 392.54 10.30Q393.50 8.65 395.15 7.69Q396.80 6.72 398.75 6.72M392.50 17.70Q392.50 19.40 393.34 20.84Q394.18 22.27 395.61 23.11Q397.05 23.95 398.75 23.95Q400.45 23.95 401.89 23.11Q403.32 22.27 404.16 20.84Q405 19.40 405 17.70L405 13.90Q405 12.20 404.16 10.76Q403.32 9.32 401.89 8.49Q400.45 7.65 398.75 7.65Q397.05 7.65 395.61 8.49Q394.18 9.32 393.34 10.76Q392.50 12.20 392.50 13.90L392.50 17.70ZM421.02 7.68Q422.52 8.38 423.39 9.75Q424.25 11.13 424.25 12.80Q424.25 14.75 423.06 16.29Q421.88 17.82 420.02 18.32L424.45 24.50L423.35 24.50L419.07 18.50L418.27 18.52L412 18.52L412 24.50L411.07 24.50L411.07 7.10L417.70 7.10Q418.80 7.10 419.59 7.24Q420.38 7.38 421.02 7.68M418.52 17.60Q419.82 17.60 420.93 16.95Q422.02 16.30 422.68 15.20Q423.32 14.10 423.32 12.80Q423.32 11.35 422.56 10.17Q421.80 9 420.45 8.43Q419.48 8.02 417.70 8.02L412 8.02L412 17.60L418.52 17.60ZM435.57 7.10Q437.48 7.10 439.09 8.05Q440.70 9 441.65 10.61Q442.60 12.22 442.60 14.13L442.60 17.48Q442.60 19.38 441.65 20.99Q440.70 22.60 439.09 23.55Q437.48 24.50 435.57 24.50L429.15 24.50L429.15 7.10L435.57 7.10M441.68 14.13Q441.68 12.47 440.85 11.07Q440.02 9.67 438.61 8.85Q437.20 8.02 435.55 8.02L430.07 8.02L430.07 23.57L435.55 23.57Q437.20 23.57 438.61 22.75Q440.02 21.93 440.85 20.52Q441.68 19.13 441.68 17.48L441.68 14.13ZM456.10 7.10L454.75 14.38L452.43 14.38L452.43 7.10L456.10 7.10ZM473.13 16.17Q471 15.75 469.66 15.24Q468.32 14.72 467.56 13.84Q466.80 12.95 466.80 11.55Q466.80 10.10 467.56 9Q468.32 7.90 469.71 7.30Q471.10 6.70 472.93 6.70Q474.68 6.70 476.14 7.44Q477.60 8.18 478.45 9.50Q479.30 10.82 479.30 12.52L478.38 12.52Q478.38 11.05 477.65 9.92Q476.93 8.80 475.68 8.19Q474.43 7.57 472.90 7.57Q471.55 7.57 470.38 8Q469.20 8.43 468.46 9.30Q467.73 10.17 467.73 11.50Q467.73 12.70 468.43 13.41Q469.13 14.13 470.25 14.50Q471.38 14.88 473.40 15.30Q475.45 15.72 476.59 16.11Q477.73 16.50 478.51 17.40Q479.30 18.30 479.30 19.93Q479.30 21.55 478.44 22.66Q477.57 23.77 476.15 24.32Q474.73 24.88 473.05 24.88Q470.98 24.88 469.40 24.10Q467.82 23.32 466.99 21.91Q466.15 20.50 466.15 18.68L467.07 18.68Q467.07 20.27 467.79 21.48Q468.50 22.68 469.85 23.34Q471.20 24 473.05 24Q475.35 24 476.86 22.90Q478.38 21.80 478.38 19.90Q478.38 18.60 477.73 17.90Q477.07 17.20 476.09 16.89Q475.10 16.57 473.13 16.17ZM517.35 20.07L517.35 24.50L504.10 24.50L504.10 7.10L505.02 7.10L505.02 20.07L517.35 20.07ZM527.77 7.10L528.75 7.10L535.90 24.50L534.90 24.50L532.55 18.75L523.98 18.75L521.60 24.50L520.63 24.50L527.77 7.10M524.35 17.85L532.17 17.85L528.25 8.30L524.35 17.85ZM555 7.10L550.33 24.50L549.35 24.50L546.75 14.82L544.15 24.50L543.17 24.50L538.50 7.10L539.45 7.10L543.65 22.77L546.27 13.05L544.67 7.10L545.63 7.10L547.23 13.05L549.85 22.77L554.05 7.10L555 7.10ZM576.50 13.88Q576.50 11.92 577.48 10.25Q578.45 8.57 580.11 7.60Q581.77 6.63 583.75 6.63Q585.73 6.63 587.39 7.60Q589.05 8.57 590.02 10.25Q591 11.92 591 13.88L591 17.73Q591 19.68 590.02 21.35Q589.05 23.02 587.39 24Q585.73 24.98 583.75 24.98Q581.77 24.98 580.11 24Q578.45 23.02 577.48 21.35Q576.50 19.68 576.50 17.73L576.50 13.88M581.05 17.73Q581.05 18.93 581.80 19.77Q582.55 20.63 583.75 20.63Q584.92 20.63 585.67 19.77Q586.42 18.93 586.42 17.73L586.42 13.85Q586.42 12.63 585.67 11.80Q584.92 10.97 583.75 10.97Q582.55 10.97 581.80 11.80Q581.05 12.63 581.05 13.85L581.05 17.73ZM595.45 24.50L595.45 7.10L596.42 7.10L608.58 18.90L608.58 7.10L609.50 7.10L609.50 24.50L608.58 24.50L608.58 20.20L596.38 8.30L596.38 24.50L595.45 24.50ZM639.38 24.95Q635.75 24.95 633.79 23.24Q631.83 21.52 631.85 18.10L635.92 18.10Q635.90 19.52 636.77 20.27Q637.65 21.02 639.23 21.02Q640.52 21.02 641.27 20.60Q642.02 20.18 642.02 19.30Q642.02 18.57 641.26 18.25Q640.50 17.93 639.75 17.79Q639 17.65 638.83 17.63Q636.90 17.25 635.50 16.71Q634.10 16.17 633.15 15.07Q632.20 13.97 632.20 12.17Q632.20 10.38 633.15 9.11Q634.10 7.85 635.69 7.22Q637.27 6.60 639.15 6.60Q641.42 6.60 643.09 7.45Q644.75 8.30 645.70 10.02Q646.17 10.85 646.27 11.61Q646.38 12.38 646.38 13.10L642.30 13.10Q642.30 11.75 641.58 11.11Q640.85 10.47 639.33 10.47Q638.10 10.47 637.42 10.90Q636.75 11.32 636.75 12.05Q636.75 12.85 637.65 13.22Q638.55 13.60 639.92 13.90Q642.17 14.35 643.44 14.76Q644.70 15.17 645.63 16.23Q646.55 17.27 646.55 19.18Q646.55 20.98 645.55 22.27Q644.55 23.57 642.91 24.26Q641.27 24.95 639.38 24.95ZM657.75 6.72Q659.70 6.72 661.35 7.69Q663 8.65 663.96 10.30Q664.92 11.95 664.92 13.90L664.92 17.70Q664.92 19.65 663.96 21.30Q663 22.95 661.35 23.91Q659.70 24.88 657.75 24.88Q655.80 24.88 654.15 23.91Q652.50 22.95 651.54 21.30Q650.58 19.65 650.58 17.70L650.58 13.90Q650.58 11.95 651.54 10.30Q652.50 8.65 654.15 7.69Q655.80 6.72 657.75 6.72M651.50 17.70Q651.50 19.40 652.34 20.84Q653.17 22.27 654.61 23.11Q656.05 23.95 657.75 23.95Q659.45 23.95 660.89 23.11Q662.33 22.27 663.16 20.84Q664 19.40 664 17.70L664 13.90Q664 12.20 663.16 10.76Q662.33 9.32 660.89 8.49Q659.45 7.65 657.75 7.65Q656.05 7.65 654.61 8.49Q653.17 9.32 652.34 10.76Q651.50 12.20 651.50 13.90L651.50 17.70ZM670.15 24.50L669.23 24.50L669.23 7.10L670.23 7.10L676.30 17.82L682.35 7.10L683.27 7.10L683.27 24.50L682.35 24.50L682.35 8.95L676.73 18.88L675.85 18.88L670.15 8.82L670.15 24.50ZM688.75 7.10L701 7.10L701 8.02L689.67 8.02L689.67 15.07L699.52 15.07L699.52 16L689.67 16L689.67 23.57L701 23.57L701 24.50L688.75 24.50L688.75 7.10ZM738.92 17.93Q738.95 21.20 737.05 23.04Q735.15 24.88 731.83 24.88Q729.85 24.88 728.19 23.98Q726.52 23.07 725.55 21.43Q724.58 19.77 724.58 17.63L724.58 13.97Q724.58 11.85 725.51 10.20Q726.45 8.55 728.09 7.64Q729.73 6.72 731.75 6.72Q735.08 6.72 736.96 8.54Q738.85 10.35 738.88 13.65L734.38 13.65Q734.35 12.38 733.69 11.67Q733.02 10.97 731.75 10.97Q730.60 10.97 729.85 11.70Q729.10 12.42 729.10 13.75L729.10 17.82Q729.10 19.15 729.89 19.89Q730.67 20.63 731.83 20.63Q734.45 20.63 734.45 17.93L738.92 17.93ZM754.02 7.68Q755.52 8.38 756.39 9.75Q757.25 11.13 757.25 12.80Q757.25 14.75 756.06 16.29Q754.88 17.82 753.02 18.32L757.45 24.50L756.35 24.50L752.08 18.50L751.27 18.52L745 18.52L745 24.50L744.08 24.50L744.08 7.10L750.70 7.10Q751.80 7.10 752.59 7.24Q753.38 7.38 754.02 7.68M751.52 17.60Q752.83 17.60 753.92 16.95Q755.02 16.30 755.67 15.20Q756.33 14.10 756.33 12.80Q756.33 11.35 755.56 10.17Q754.80 9 753.45 8.43Q752.48 8.02 750.70 8.02L745 8.02L745 17.60L751.52 17.60ZM768.27 7.10L769.25 7.10L776.40 24.50L775.40 24.50L773.05 18.75L764.48 18.75L762.10 24.50L761.13 24.50L768.27 7.10M764.85 17.85L772.67 17.85L768.75 8.30L764.85 17.85ZM793.73 7.10L793.70 8.02L781.95 23.57L793.73 23.57L793.73 24.50L780.80 24.50L780.80 23.57L792.52 8.02L781.08 8.02L781.08 7.10L793.73 7.10ZM799.60 7.10L805.77 16.40L811.90 7.10L813 7.10L806.23 17.38L806.23 24.50L805.30 24.50L805.30 17.38L798.50 7.10L799.60 7.10ZM836.50 24.50L836.50 7.10L842.98 7.10Q844.88 7.10 846.49 8.05Q848.10 9 849.05 10.61Q850 12.22 850 14.13L850 17.48Q850 19.38 849.05 20.99Q848.10 22.60 846.49 23.55Q844.88 24.50 842.98 24.50L836.50 24.50ZM860.77 7.10L861.75 7.10L868.90 24.50L867.90 24.50L865.55 18.75L856.98 18.75L854.60 24.50L853.63 24.50L860.77 7.10M857.35 17.85L865.17 17.85L861.25 8.30L857.35 17.85ZM886.77 7.10L886.77 8.02L880.20 8.02L880.20 24.50L879.30 24.50L879.30 8.02L872.73 8.02L872.73 7.10L886.77 7.10ZM897.77 7.10L898.75 7.10L905.90 24.50L904.90 24.50L902.55 18.75L893.98 18.75L891.60 24.50L890.63 24.50L897.77 7.10M894.35 17.85L902.17 17.85L898.25 8.30L894.35 17.85ZM917.13 16.17Q915 15.75 913.66 15.24Q912.33 14.72 911.56 13.84Q910.80 12.95 910.80 11.55Q910.80 10.10 911.56 9Q912.33 7.90 913.71 7.30Q915.10 6.70 916.92 6.70Q918.67 6.70 920.14 7.44Q921.60 8.18 922.45 9.50Q923.30 10.82 923.30 12.52L922.38 12.52Q922.38 11.05 921.65 9.92Q920.92 8.80 919.67 8.19Q918.42 7.57 916.90 7.57Q915.55 7.57 914.38 8Q913.20 8.43 912.46 9.30Q911.73 10.17 911.73 11.50Q911.73 12.70 912.42 13.41Q913.13 14.13 914.25 14.50Q915.38 14.88 917.40 15.30Q919.45 15.72 920.59 16.11Q921.73 16.50 922.51 17.40Q923.30 18.30 923.30 19.93Q923.30 21.55 922.44 22.66Q921.58 23.77 920.15 24.32Q918.73 24.88 917.05 24.88Q914.98 24.88 913.40 24.10Q911.83 23.32 910.99 21.91Q910.15 20.50 910.15 18.68L911.08 18.68Q911.08 20.27 911.79 21.48Q912.50 22.68 913.85 23.34Q915.20 24 917.05 24Q919.35 24 920.86 22.90Q922.38 21.80 922.38 19.90Q922.38 18.60 921.73 17.90Q921.08 17.20 920.09 16.89Q919.10 16.57 917.13 16.17ZM929.25 7.10L941.50 7.10L941.50 8.02L930.17 8.02L930.17 15.07L940.02 15.07L940.02 16L930.17 16L930.17 23.57L941.50 23.57L941.50 24.50L929.25 24.50L929.25 7.10ZM960.77 7.10L960.77 8.02L954.20 8.02L954.20 24.50L953.30 24.50L953.30 8.02L946.73 8.02L946.73 7.10L960.77 7.10ZM972.63 16.17Q970.50 15.75 969.16 15.24Q967.83 14.72 967.06 13.84Q966.30 12.95 966.30 11.55Q966.30 10.10 967.06 9Q967.83 7.90 969.21 7.30Q970.60 6.70 972.42 6.70Q974.17 6.70 975.64 7.44Q977.10 8.18 977.95 9.50Q978.80 10.82 978.80 12.52L977.88 12.52Q977.88 11.05 977.15 9.92Q976.42 8.80 975.17 8.19Q973.92 7.57 972.40 7.57Q971.05 7.57 969.88 8Q968.70 8.43 967.96 9.30Q967.23 10.17 967.23 11.50Q967.23 12.70 967.92 13.41Q968.63 14.13 969.75 14.50Q970.88 14.88 972.90 15.30Q974.95 15.72 976.09 16.11Q977.23 16.50 978.01 17.40Q978.80 18.30 978.80 19.93Q978.80 21.55 977.94 22.66Q977.08 23.77 975.65 24.32Q974.23 24.88 972.55 24.88Q970.48 24.88 968.90 24.10Q967.33 23.32 966.49 21.91Q965.65 20.50 965.65 18.68L966.58 18.68Q966.58 20.27 967.29 21.48Q968 22.68 969.35 23.34Q970.70 24 972.55 24Q974.85 24 976.36 22.90Q977.88 21.80 977.88 19.90Q977.88 18.60 977.23 17.90Q976.58 17.20 975.59 16.89Q974.60 16.57 972.63 16.17Z"></path></svg>