<svg version="1.1" xmlns="http://www.w3.org/2000/svg" xmlns:xlink="http://www.w3.org/1999/xlink" role="img" width="1068" height="74" viewbox="0 0 1068 74"><title>Mighty Benford's Law</title><desc>Generated by logo.svg, https://github.com/bubkoo/logo.svg</desc><path d="M7.41 16.62L10.29 16.62L27.78 47.58L45.21 16.62L47.87 16.62L47.87 66.73L7.41 66.73L7.41 16.62M10.07 64.14L45.21 64.14L45.21 22.02L29.01 50.53L26.49 50.53L10.07 21.58L10.07 64.14ZM97.19 16.69L97.19 19.35L82.22 19.35L82.22 64.14L97.19 64.14L97.19 66.80L64.72 66.80L64.72 64.14L79.62 64.14L79.62 19.35L64.72 19.35L64.72 16.69L97.19 16.69ZM151.84 56.50Q149.90 61.47 144.78 64.68Q139.67 67.88 133.84 67.88Q128.22 67.88 123.47 65.07Q118.72 62.26 115.95 57.33Q113.18 52.40 113.18 46.50L113.18 36.42Q113.18 30.66 115.95 25.90Q118.72 21.15 123.44 18.38Q128.15 15.61 133.84 15.61Q138.52 15.61 142.41 17.16Q146.30 18.70 149.03 21.66Q151.26 24.10 152.67 27.13Q154.07 30.15 154.07 33.25L151.48 33.25Q151.41 30.58 150.15 27.99Q148.89 25.40 146.94 23.31Q142.12 18.27 133.84 18.27Q128.87 18.27 124.73 20.68Q120.59 23.10 118.22 27.24Q115.84 31.38 115.84 36.42L115.84 46.50Q115.84 51.75 118.25 56.04Q120.66 60.32 124.80 62.77Q128.94 65.22 133.84 65.22Q138.81 65.22 142.95 62.80Q147.09 60.39 149.46 56.25Q151.84 52.11 151.84 47.22L151.84 44.70L133.84 44.70L133.84 42.03L154.50 42.03L154.50 66.80L151.84 66.80L151.84 56.50ZM168.18 66.80L168.18 16.69L170.85 16.69L170.85 40.38L204.11 40.38L204.11 16.69L206.78 16.69L206.78 66.80L204.11 66.80L204.11 43.04L170.85 43.04L170.85 66.80L168.18 66.80ZM260.99 16.69L260.99 19.35L242.06 19.35L242.06 66.80L239.46 66.80L239.46 19.35L220.53 19.35L220.53 16.69L260.99 16.69ZM276.33 16.69L294.11 43.47L311.75 16.69L314.92 16.69L295.41 46.28L295.41 66.80L292.74 66.80L292.74 46.28L273.16 16.69L276.33 16.69ZM404.13 16.69Q408.88 16.69 411.69 18.13Q415.07 19.86 416.91 22.88Q418.74 25.90 418.74 29.65Q418.74 33.18 416.87 36.16Q415.00 39.15 411.76 40.88Q415.65 42.25 418.31 45.63Q420.98 49.02 420.98 53.26Q420.98 57.01 419.07 60.14Q417.16 63.27 413.99 65.07Q412.41 65.94 410.46 66.37Q408.52 66.80 405.28 66.80L383.10 66.80L383.10 16.69L404.13 16.69ZM436.60 16.69L471.88 16.69L471.88 19.35L439.26 19.35L439.26 39.66L467.63 39.66L467.63 42.32L439.26 42.32L439.26 64.14L471.88 64.14L471.88 66.80L436.60 66.80L436.60 16.69ZM487.58 66.80L487.58 16.69L490.38 16.69L525.38 50.67L525.38 16.69L528.04 16.69L528.04 66.80L525.38 66.80L525.38 54.42L490.24 20.14L490.24 66.80L487.58 66.80ZM543.81 16.69L581.18 16.69L581.18 19.35L546.47 19.35L546.47 40.38L574.55 40.38L574.55 43.04L546.47 43.04L546.47 66.80L543.81 66.80L543.81 16.69ZM613.72 15.61Q619.34 15.61 624.09 18.38Q628.84 21.15 631.61 25.90Q634.38 30.66 634.38 36.27L634.38 47.22Q634.38 52.83 631.61 57.58Q628.84 62.34 624.09 65.11Q619.34 67.88 613.72 67.88Q608.10 67.88 603.35 65.11Q598.60 62.34 595.83 57.58Q593.06 52.83 593.06 47.22L593.06 36.27Q593.06 30.66 595.83 25.90Q598.60 21.15 603.35 18.38Q608.10 15.61 613.72 15.61M595.72 47.22Q595.72 52.11 598.13 56.25Q600.54 60.39 604.68 62.80Q608.82 65.22 613.72 65.22Q618.62 65.22 622.76 62.80Q626.90 60.39 629.31 56.25Q631.72 52.11 631.72 47.22L631.72 36.27Q631.72 31.38 629.31 27.24Q626.90 23.10 622.76 20.68Q618.62 18.27 613.72 18.27Q608.82 18.27 604.68 20.68Q600.54 23.10 598.13 27.24Q595.72 31.38 595.72 36.27L595.72 47.22ZM677.87 18.34Q682.19 20.36 684.68 24.32Q687.16 28.28 687.16 33.10Q687.16 38.72 683.74 43.15Q680.32 47.58 674.99 49.02L687.74 66.80L684.57 66.80L672.26 49.52L669.95 49.59L651.88 49.59L651.88 66.80L649.22 66.80L649.22 16.69L668.30 16.69Q671.46 16.69 673.73 17.08Q676.00 17.48 677.87 18.34M670.67 46.93Q674.42 46.93 677.58 45.06Q680.75 43.18 682.62 40.02Q684.50 36.85 684.50 33.10Q684.50 28.93 682.30 25.54Q680.10 22.16 676.22 20.50Q673.41 19.35 668.30 19.35L651.88 19.35L651.88 46.93L670.67 46.93ZM719.78 16.69Q725.25 16.69 729.89 19.42Q734.54 22.16 737.27 26.80Q740.01 31.45 740.01 36.92L740.01 46.57Q740.01 52.04 737.27 56.68Q734.54 61.33 729.89 64.06Q725.25 66.80 719.78 66.80L701.27 66.80L701.27 16.69L719.78 16.69M737.34 36.92Q737.34 32.17 734.97 28.14Q732.59 24.10 728.52 21.73Q724.46 19.35 719.70 19.35L703.94 19.35L703.94 64.14L719.70 64.14Q724.46 64.14 728.52 61.76Q732.59 59.38 734.97 55.35Q737.34 51.32 737.34 46.57L737.34 36.92ZM778.89 16.69L775.00 37.64L768.30 37.64L768.30 16.69L778.89 16.69ZM827.92 42.82Q821.80 41.60 817.95 40.12Q814.10 38.65 811.90 36.09Q809.70 33.54 809.70 29.50Q809.70 25.33 811.90 22.16Q814.10 18.99 818.09 17.26Q822.09 15.54 827.34 15.54Q832.38 15.54 836.60 17.66Q840.81 19.78 843.26 23.60Q845.70 27.42 845.70 32.31L843.04 32.31Q843.04 28.06 840.95 24.82Q838.86 21.58 835.26 19.82Q831.66 18.06 827.27 18.06Q823.38 18.06 820 19.28Q816.62 20.50 814.49 23.02Q812.37 25.54 812.37 29.36Q812.37 32.82 814.38 34.87Q816.40 36.92 819.64 38.00Q822.88 39.08 828.71 40.30Q834.62 41.53 837.89 42.64Q841.17 43.76 843.44 46.35Q845.70 48.94 845.70 53.62Q845.70 58.30 843.22 61.51Q840.74 64.71 836.63 66.30Q832.53 67.88 827.70 67.88Q821.73 67.88 817.19 65.65Q812.66 63.42 810.24 59.35Q807.83 55.28 807.83 50.02L810.50 50.02Q810.50 54.63 812.55 58.09Q814.60 61.54 818.49 63.45Q822.38 65.36 827.70 65.36Q834.33 65.36 838.68 62.19Q843.04 59.02 843.04 53.55Q843.04 49.81 841.17 47.79Q839.30 45.78 836.45 44.88Q833.61 43.98 827.92 42.82ZM955.29 54.06L955.29 66.80L917.13 66.80L917.13 16.69L919.79 16.69L919.79 54.06L955.29 54.06ZM985.31 16.69L988.12 16.69L1008.71 66.80L1005.83 66.80L999.06 50.24L974.37 50.24L967.53 66.80L964.72 66.80L985.31 16.69M975.45 47.65L997.98 47.65L986.68 20.14L975.45 47.65ZM1063.72 16.69L1050.26 66.80L1047.45 66.80L1039.96 38.94L1032.47 66.80L1029.66 66.80L1016.20 16.69L1018.94 16.69L1031.03 61.83L1038.59 33.82L1033.98 16.69L1036.72 16.69L1041.33 33.82L1048.89 61.83L1060.98 16.69L1063.72 16.69Z"></path></svg>